<?xml version="1.0" standalone="no"?>
<!DOCTYPE svg PUBLIC "-//W3C//DTD SVG 20010904//EN"
 "http://www.w3.org/TR/2001/REC-SVG-20010904/DTD/svg10.dtd">
<svg version="1.0" xmlns="http://www.w3.org/2000/svg"
 width="200.000000pt" height="200.000000pt" viewBox="0 0 200.000000 200.000000"
 preserveAspectRatio="xMidYMid meet">
<metadata>
Created by potrace 1.14, written by Peter Selinger 2001-2017
</metadata>
<g transform="translate(0.000000,200.000000) scale(0.100000,-0.100000)"
fill="#000000" stroke="none">
<path d="M275 1893 c-19 -27 -58 -93 -86 -149 -68 -133 -74 -198 -34 -335 41
-140 65 -228 76 -284 24 -111 29 -138 34 -183 4 -26 8 -58 11 -72 2 -14 6 -61
9 -105 4 -44 8 -91 11 -105 2 -14 7 -137 9 -275 l5 -250 29 -6 c55 -12 55 -14
57 298 1 281 10 528 19 588 3 17 7 51 10 77 5 61 23 125 36 133 28 18 115
-130 214 -365 70 -167 97 -249 131 -391 56 -241 65 -274 89 -315 51 -87 134
-110 327 -90 87 9 108 13 198 37 41 11 80 21 85 22 38 10 103 35 181 69 90 39
91 39 107 87 18 56 63 257 71 316 19 143 -1 196 -81 209 -15 3 -64 7 -108 11
-78 6 -180 29 -200 45 -6 5 -46 10 -89 11 -135 4 -245 38 -301 94 -27 26 -77
110 -135 229 -77 156 -132 241 -241 370 -98 118 -307 336 -321 336 -9 0 121
-147 238 -270 118 -123 183 -215 260 -370 30 -60 54 -111 54 -115 0 -4 20 -38
45 -77 61 -94 128 -159 199 -192 54 -26 68 -28 167 -27 60 1 109 0 109 -3 0
-6 -67 -37 -93 -42 -52 -11 -146 -10 -200 3 -126 29 -196 107 -324 358 -138
272 -296 522 -428 680 -23 28 -48 60 -54 73 -19 35 -47 27 -86 -25z"/>
</g>
</svg>
